<mxfile host="app.diagrams.net" modified="2023-12-29T12:47:59.142Z" agent="Mozilla/5.0 (Windows NT 10.0; Win64; x64) AppleWebKit/537.36 (KHTML, like Gecko) Chrome/120.0.0.0 Safari/537.36" etag="sSAalPBK-jqQyuOeVLq9" version="22.1.16" type="github">
  <diagram name="Page-1" id="iINk8uafLW433sNhgqh3">
    <mxGraphModel dx="1050" dy="522" grid="1" gridSize="10" guides="1" tooltips="1" connect="1" arrows="1" fold="1" page="1" pageScale="1" pageWidth="850" pageHeight="1100" math="0" shadow="0">
      <root>
        <mxCell id="0" />
        <mxCell id="1" parent="0" />
        <mxCell id="KczFj5_08jti5lBXCSbE-1" value="RM1" style="ellipse;whiteSpace=wrap;html=1;aspect=fixed;" vertex="1" parent="1">
          <mxGeometry x="320" y="90" width="40" height="40" as="geometry" />
        </mxCell>
        <mxCell id="KczFj5_08jti5lBXCSbE-6" value="U11" style="rounded=1;whiteSpace=wrap;html=1;strokeColor=default;align=center;verticalAlign=bottom;fontFamily=Helvetica;fontSize=12;fontColor=default;fillColor=default;dashed=1;labelPosition=center;verticalLabelPosition=top;fontStyle=1" vertex="1" parent="1">
          <mxGeometry x="280" y="170" width="120" height="60" as="geometry" />
        </mxCell>
        <mxCell id="KczFj5_08jti5lBXCSbE-7" value="T11" style="rounded=0;whiteSpace=wrap;html=1;strokeColor=default;align=center;verticalAlign=middle;fontFamily=Helvetica;fontSize=12;fontColor=default;fillColor=default;" vertex="1" parent="1">
          <mxGeometry x="290" y="180" width="40" height="40" as="geometry" />
        </mxCell>
        <mxCell id="KczFj5_08jti5lBXCSbE-10" value="T12" style="rounded=0;whiteSpace=wrap;html=1;strokeColor=default;align=center;verticalAlign=middle;fontFamily=Helvetica;fontSize=12;fontColor=default;fillColor=default;" vertex="1" parent="1">
          <mxGeometry x="350" y="180" width="40" height="40" as="geometry" />
        </mxCell>
        <mxCell id="KczFj5_08jti5lBXCSbE-12" value="U12" style="rounded=1;whiteSpace=wrap;html=1;strokeColor=default;align=center;verticalAlign=bottom;fontFamily=Helvetica;fontSize=12;fontColor=default;fillColor=default;dashed=1;labelPosition=center;verticalLabelPosition=top;fontStyle=1" vertex="1" parent="1">
          <mxGeometry x="440" y="170" width="120" height="60" as="geometry" />
        </mxCell>
        <mxCell id="KczFj5_08jti5lBXCSbE-13" value="T21" style="rounded=0;whiteSpace=wrap;html=1;strokeColor=default;align=center;verticalAlign=middle;fontFamily=Helvetica;fontSize=12;fontColor=default;fillColor=default;" vertex="1" parent="1">
          <mxGeometry x="450" y="180" width="40" height="40" as="geometry" />
        </mxCell>
        <mxCell id="KczFj5_08jti5lBXCSbE-14" value="T22" style="rounded=0;whiteSpace=wrap;html=1;strokeColor=default;align=center;verticalAlign=middle;fontFamily=Helvetica;fontSize=12;fontColor=default;fillColor=default;" vertex="1" parent="1">
          <mxGeometry x="510" y="180" width="40" height="40" as="geometry" />
        </mxCell>
        <mxCell id="KczFj5_08jti5lBXCSbE-15" value="" style="endArrow=classic;html=1;rounded=0;fontFamily=Helvetica;fontSize=12;fontColor=default;exitX=0.5;exitY=1;exitDx=0;exitDy=0;entryX=0.5;entryY=0;entryDx=0;entryDy=0;" edge="1" parent="1" source="KczFj5_08jti5lBXCSbE-5" target="KczFj5_08jti5lBXCSbE-14">
          <mxGeometry width="50" height="50" relative="1" as="geometry">
            <mxPoint x="520" y="100" as="sourcePoint" />
            <mxPoint x="580" y="40" as="targetPoint" />
          </mxGeometry>
        </mxCell>
        <mxCell id="KczFj5_08jti5lBXCSbE-21" value="" style="endArrow=classic;html=1;rounded=0;fontFamily=Helvetica;fontSize=12;fontColor=default;entryX=0.5;entryY=0;entryDx=0;entryDy=0;" edge="1" parent="1" target="KczFj5_08jti5lBXCSbE-7">
          <mxGeometry width="50" height="50" relative="1" as="geometry">
            <mxPoint x="340" y="130" as="sourcePoint" />
            <mxPoint x="326.66666666666674" y="180" as="targetPoint" />
          </mxGeometry>
        </mxCell>
        <mxCell id="KczFj5_08jti5lBXCSbE-22" value="" style="endArrow=classic;html=1;rounded=0;fontFamily=Helvetica;fontSize=12;fontColor=default;exitX=0.5;exitY=1;exitDx=0;exitDy=0;entryX=0.5;entryY=0;entryDx=0;entryDy=0;" edge="1" parent="1" source="KczFj5_08jti5lBXCSbE-1" target="KczFj5_08jti5lBXCSbE-10">
          <mxGeometry width="50" height="50" relative="1" as="geometry">
            <mxPoint x="345" y="105" as="sourcePoint" />
            <mxPoint x="395" y="55" as="targetPoint" />
          </mxGeometry>
        </mxCell>
        <mxCell id="KczFj5_08jti5lBXCSbE-24" value="INT1" style="ellipse;whiteSpace=wrap;html=1;aspect=fixed;" vertex="1" parent="1">
          <mxGeometry x="315" y="260" width="40" height="40" as="geometry" />
        </mxCell>
        <mxCell id="KczFj5_08jti5lBXCSbE-25" value="INT2" style="ellipse;whiteSpace=wrap;html=1;aspect=fixed;" vertex="1" parent="1">
          <mxGeometry x="470" y="260" width="40" height="40" as="geometry" />
        </mxCell>
        <mxCell id="KczFj5_08jti5lBXCSbE-27" value="" style="endArrow=classic;html=1;rounded=0;fontFamily=Helvetica;fontSize=12;fontColor=default;entryX=1;entryY=0;entryDx=0;entryDy=0;exitX=0.5;exitY=1;exitDx=0;exitDy=0;" edge="1" parent="1" source="KczFj5_08jti5lBXCSbE-13" target="KczFj5_08jti5lBXCSbE-24">
          <mxGeometry width="50" height="50" relative="1" as="geometry">
            <mxPoint x="440" y="200" as="sourcePoint" />
            <mxPoint x="360" y="300" as="targetPoint" />
          </mxGeometry>
        </mxCell>
        <mxCell id="KczFj5_08jti5lBXCSbE-28" value="" style="endArrow=classic;html=1;rounded=0;fontFamily=Helvetica;fontSize=12;fontColor=default;exitX=0.5;exitY=1;exitDx=0;exitDy=0;" edge="1" parent="1" source="KczFj5_08jti5lBXCSbE-7" target="KczFj5_08jti5lBXCSbE-24">
          <mxGeometry width="50" height="50" relative="1" as="geometry">
            <mxPoint x="290" y="340" as="sourcePoint" />
            <mxPoint x="340" y="290" as="targetPoint" />
          </mxGeometry>
        </mxCell>
        <mxCell id="KczFj5_08jti5lBXCSbE-29" value="" style="endArrow=classic;html=1;rounded=0;fontFamily=Helvetica;fontSize=12;fontColor=default;entryX=0;entryY=0;entryDx=0;entryDy=0;" edge="1" parent="1" target="KczFj5_08jti5lBXCSbE-25">
          <mxGeometry width="50" height="50" relative="1" as="geometry">
            <mxPoint x="370" y="220" as="sourcePoint" />
            <mxPoint x="420" y="170" as="targetPoint" />
          </mxGeometry>
        </mxCell>
        <mxCell id="KczFj5_08jti5lBXCSbE-31" value="" style="endArrow=classic;html=1;rounded=0;fontFamily=Helvetica;fontSize=12;fontColor=default;entryX=0.5;entryY=0;entryDx=0;entryDy=0;exitX=0.5;exitY=1;exitDx=0;exitDy=0;" edge="1" parent="1" source="KczFj5_08jti5lBXCSbE-14" target="KczFj5_08jti5lBXCSbE-25">
          <mxGeometry width="50" height="50" relative="1" as="geometry">
            <mxPoint x="485" y="270" as="sourcePoint" />
            <mxPoint x="535" y="220" as="targetPoint" />
          </mxGeometry>
        </mxCell>
        <mxCell id="KczFj5_08jti5lBXCSbE-32" value="INT3" style="ellipse;whiteSpace=wrap;html=1;aspect=fixed;" vertex="1" parent="1">
          <mxGeometry x="328" y="440" width="40" height="40" as="geometry" />
        </mxCell>
        <mxCell id="KczFj5_08jti5lBXCSbE-33" value="INT4" style="ellipse;whiteSpace=wrap;html=1;aspect=fixed;" vertex="1" parent="1">
          <mxGeometry x="505" y="430" width="40" height="40" as="geometry" />
        </mxCell>
        <mxCell id="KczFj5_08jti5lBXCSbE-34" value="" style="rounded=1;whiteSpace=wrap;html=1;strokeColor=default;align=center;verticalAlign=bottom;fontFamily=Helvetica;fontSize=12;fontColor=default;fillColor=default;dashed=1;labelPosition=center;verticalLabelPosition=top;" vertex="1" parent="1">
          <mxGeometry x="263" y="340" width="120" height="60" as="geometry" />
        </mxCell>
        <mxCell id="KczFj5_08jti5lBXCSbE-60" value="" style="rounded=0;orthogonalLoop=1;jettySize=auto;html=1;fontFamily=Helvetica;fontSize=12;fontColor=default;" edge="1" parent="1" source="KczFj5_08jti5lBXCSbE-35" target="KczFj5_08jti5lBXCSbE-32">
          <mxGeometry relative="1" as="geometry" />
        </mxCell>
        <mxCell id="KczFj5_08jti5lBXCSbE-35" value="T31" style="rounded=0;whiteSpace=wrap;html=1;strokeColor=default;align=center;verticalAlign=middle;fontFamily=Helvetica;fontSize=12;fontColor=default;fillColor=default;direction=south;" vertex="1" parent="1">
          <mxGeometry x="273" y="350" width="40" height="40" as="geometry" />
        </mxCell>
        <mxCell id="KczFj5_08jti5lBXCSbE-61" style="rounded=0;orthogonalLoop=1;jettySize=auto;html=1;fontFamily=Helvetica;fontSize=12;fontColor=default;exitX=0.5;exitY=1;exitDx=0;exitDy=0;exitPerimeter=0;entryX=0.5;entryY=0;entryDx=0;entryDy=0;" edge="1" parent="1" source="KczFj5_08jti5lBXCSbE-36" target="KczFj5_08jti5lBXCSbE-32">
          <mxGeometry relative="1" as="geometry">
            <mxPoint x="370" y="418.8" as="sourcePoint" />
            <mxPoint x="336.834861261734" y="510.00413153023175" as="targetPoint" />
          </mxGeometry>
        </mxCell>
        <mxCell id="KczFj5_08jti5lBXCSbE-36" value="T32" style="rounded=0;whiteSpace=wrap;html=1;strokeColor=default;align=center;verticalAlign=middle;fontFamily=Helvetica;fontSize=12;fontColor=default;fillColor=default;" vertex="1" parent="1">
          <mxGeometry x="333" y="350" width="40" height="40" as="geometry" />
        </mxCell>
        <mxCell id="KczFj5_08jti5lBXCSbE-37" value="&lt;b&gt;&amp;nbsp;U24&lt;/b&gt;" style="rounded=1;whiteSpace=wrap;html=1;strokeColor=default;align=left;verticalAlign=middle;fontFamily=Helvetica;fontSize=12;fontColor=default;fillColor=default;dashed=1;labelPosition=right;verticalLabelPosition=middle;" vertex="1" parent="1">
          <mxGeometry x="408" y="340" width="180" height="60" as="geometry" />
        </mxCell>
        <mxCell id="KczFj5_08jti5lBXCSbE-62" style="rounded=0;orthogonalLoop=1;jettySize=auto;html=1;exitX=0.25;exitY=1;exitDx=0;exitDy=0;entryX=0.5;entryY=0;entryDx=0;entryDy=0;fontFamily=Helvetica;fontSize=12;fontColor=default;" edge="1" parent="1" source="KczFj5_08jti5lBXCSbE-38" target="KczFj5_08jti5lBXCSbE-32">
          <mxGeometry relative="1" as="geometry" />
        </mxCell>
        <mxCell id="KczFj5_08jti5lBXCSbE-38" value="T41" style="rounded=0;whiteSpace=wrap;html=1;strokeColor=default;align=center;verticalAlign=middle;fontFamily=Helvetica;fontSize=12;fontColor=default;fillColor=default;" vertex="1" parent="1">
          <mxGeometry x="418" y="350" width="40" height="40" as="geometry" />
        </mxCell>
        <mxCell id="KczFj5_08jti5lBXCSbE-63" style="rounded=0;orthogonalLoop=1;jettySize=auto;html=1;exitX=0.5;exitY=1;exitDx=0;exitDy=0;entryX=0.5;entryY=0;entryDx=0;entryDy=0;fontFamily=Helvetica;fontSize=12;fontColor=default;" edge="1" parent="1" source="KczFj5_08jti5lBXCSbE-39" target="KczFj5_08jti5lBXCSbE-33">
          <mxGeometry relative="1" as="geometry" />
        </mxCell>
        <mxCell id="KczFj5_08jti5lBXCSbE-39" value="T42" style="rounded=0;whiteSpace=wrap;html=1;strokeColor=default;align=center;verticalAlign=middle;fontFamily=Helvetica;fontSize=12;fontColor=default;fillColor=default;" vertex="1" parent="1">
          <mxGeometry x="478" y="350" width="40" height="40" as="geometry" />
        </mxCell>
        <mxCell id="KczFj5_08jti5lBXCSbE-40" value="" style="endArrow=classic;html=1;rounded=0;fontFamily=Helvetica;fontSize=12;fontColor=default;entryX=0.5;entryY=0;entryDx=0;entryDy=0;exitX=0.5;exitY=1;exitDx=0;exitDy=0;" edge="1" parent="1" source="KczFj5_08jti5lBXCSbE-24" target="KczFj5_08jti5lBXCSbE-36">
          <mxGeometry width="50" height="50" relative="1" as="geometry">
            <mxPoint x="340" y="320" as="sourcePoint" />
            <mxPoint x="360" y="380" as="targetPoint" />
          </mxGeometry>
        </mxCell>
        <mxCell id="KczFj5_08jti5lBXCSbE-43" value="" style="endArrow=classic;html=1;rounded=0;fontFamily=Helvetica;fontSize=12;fontColor=default;entryX=0.5;entryY=0;entryDx=0;entryDy=0;" edge="1" parent="1" source="KczFj5_08jti5lBXCSbE-5" target="KczFj5_08jti5lBXCSbE-13">
          <mxGeometry width="50" height="50" relative="1" as="geometry">
            <mxPoint x="500" y="110" as="sourcePoint" />
            <mxPoint x="550" y="60" as="targetPoint" />
          </mxGeometry>
        </mxCell>
        <mxCell id="KczFj5_08jti5lBXCSbE-64" style="rounded=0;orthogonalLoop=1;jettySize=auto;html=1;exitX=0.5;exitY=1;exitDx=0;exitDy=0;entryX=0.5;entryY=0;entryDx=0;entryDy=0;fontFamily=Helvetica;fontSize=12;fontColor=default;" edge="1" parent="1" source="KczFj5_08jti5lBXCSbE-48" target="KczFj5_08jti5lBXCSbE-33">
          <mxGeometry relative="1" as="geometry" />
        </mxCell>
        <mxCell id="KczFj5_08jti5lBXCSbE-48" value="T43" style="whiteSpace=wrap;html=1;aspect=fixed;strokeColor=default;align=center;verticalAlign=middle;fontFamily=Helvetica;fontSize=12;fontColor=default;fillColor=default;" vertex="1" parent="1">
          <mxGeometry x="538" y="350" width="40" height="40" as="geometry" />
        </mxCell>
        <mxCell id="KczFj5_08jti5lBXCSbE-49" value="" style="endArrow=classic;html=1;rounded=0;fontFamily=Helvetica;fontSize=12;fontColor=default;entryX=0.5;entryY=0;entryDx=0;entryDy=0;exitX=0.5;exitY=1;exitDx=0;exitDy=0;" edge="1" parent="1" source="KczFj5_08jti5lBXCSbE-25" target="KczFj5_08jti5lBXCSbE-48">
          <mxGeometry width="50" height="50" relative="1" as="geometry">
            <mxPoint x="505" y="330" as="sourcePoint" />
            <mxPoint x="555" y="280" as="targetPoint" />
          </mxGeometry>
        </mxCell>
        <mxCell id="KczFj5_08jti5lBXCSbE-50" value="" style="endArrow=classic;html=1;rounded=0;fontFamily=Helvetica;fontSize=12;fontColor=default;exitX=0.5;exitY=1;exitDx=0;exitDy=0;" edge="1" parent="1" source="KczFj5_08jti5lBXCSbE-25" target="KczFj5_08jti5lBXCSbE-39">
          <mxGeometry width="50" height="50" relative="1" as="geometry">
            <mxPoint x="510" y="330" as="sourcePoint" />
            <mxPoint x="560" y="280" as="targetPoint" />
          </mxGeometry>
        </mxCell>
        <mxCell id="KczFj5_08jti5lBXCSbE-51" value="" style="endArrow=classic;html=1;rounded=0;fontFamily=Helvetica;fontSize=12;fontColor=default;exitX=0.5;exitY=1;exitDx=0;exitDy=0;" edge="1" parent="1" source="KczFj5_08jti5lBXCSbE-25" target="KczFj5_08jti5lBXCSbE-38">
          <mxGeometry width="50" height="50" relative="1" as="geometry">
            <mxPoint x="500" y="330" as="sourcePoint" />
            <mxPoint x="550" y="280" as="targetPoint" />
          </mxGeometry>
        </mxCell>
        <mxCell id="KczFj5_08jti5lBXCSbE-56" value="&lt;b&gt;U23&lt;/b&gt;" style="text;html=1;align=center;verticalAlign=middle;resizable=0;points=[];autosize=1;strokeColor=none;fillColor=none;fontSize=12;fontFamily=Helvetica;fontColor=default;" vertex="1" parent="1">
          <mxGeometry x="298" y="320" width="50" height="30" as="geometry" />
        </mxCell>
        <mxCell id="KczFj5_08jti5lBXCSbE-58" value="" style="endArrow=classic;html=1;rounded=0;fontFamily=Helvetica;fontSize=12;fontColor=default;entryX=0;entryY=0.5;entryDx=0;entryDy=0;exitX=0.5;exitY=1;exitDx=0;exitDy=0;" edge="1" parent="1" source="KczFj5_08jti5lBXCSbE-24" target="KczFj5_08jti5lBXCSbE-35">
          <mxGeometry width="50" height="50" relative="1" as="geometry">
            <mxPoint x="350" y="340" as="sourcePoint" />
            <mxPoint x="400" y="290" as="targetPoint" />
          </mxGeometry>
        </mxCell>
        <mxCell id="KczFj5_08jti5lBXCSbE-68" value="" style="rounded=1;whiteSpace=wrap;html=1;strokeColor=default;align=center;verticalAlign=bottom;fontFamily=Helvetica;fontSize=12;fontColor=default;fillColor=default;dashed=1;labelPosition=center;verticalLabelPosition=top;" vertex="1" parent="1">
          <mxGeometry x="248" y="510" width="120" height="60" as="geometry" />
        </mxCell>
        <mxCell id="KczFj5_08jti5lBXCSbE-93" style="edgeStyle=orthogonalEdgeStyle;rounded=0;orthogonalLoop=1;jettySize=auto;html=1;exitX=1;exitY=0.5;exitDx=0;exitDy=0;fontFamily=Helvetica;fontSize=12;fontColor=default;" edge="1" parent="1" source="KczFj5_08jti5lBXCSbE-69" target="KczFj5_08jti5lBXCSbE-86">
          <mxGeometry relative="1" as="geometry" />
        </mxCell>
        <mxCell id="KczFj5_08jti5lBXCSbE-69" value="T51" style="rounded=0;whiteSpace=wrap;html=1;strokeColor=default;align=center;verticalAlign=middle;fontFamily=Helvetica;fontSize=12;fontColor=default;fillColor=default;direction=south;" vertex="1" parent="1">
          <mxGeometry x="258" y="520" width="40" height="40" as="geometry" />
        </mxCell>
        <mxCell id="KczFj5_08jti5lBXCSbE-94" style="edgeStyle=orthogonalEdgeStyle;rounded=0;orthogonalLoop=1;jettySize=auto;html=1;exitX=0.5;exitY=1;exitDx=0;exitDy=0;entryX=0.5;entryY=0;entryDx=0;entryDy=0;fontFamily=Helvetica;fontSize=12;fontColor=default;" edge="1" parent="1" source="KczFj5_08jti5lBXCSbE-70" target="KczFj5_08jti5lBXCSbE-87">
          <mxGeometry relative="1" as="geometry" />
        </mxCell>
        <mxCell id="KczFj5_08jti5lBXCSbE-70" value="T52" style="rounded=0;whiteSpace=wrap;html=1;strokeColor=default;align=center;verticalAlign=middle;fontFamily=Helvetica;fontSize=12;fontColor=default;fillColor=default;" vertex="1" parent="1">
          <mxGeometry x="318" y="520" width="40" height="40" as="geometry" />
        </mxCell>
        <mxCell id="KczFj5_08jti5lBXCSbE-71" value="&lt;b&gt;&amp;nbsp;U36&lt;/b&gt;" style="rounded=1;whiteSpace=wrap;html=1;strokeColor=default;align=left;verticalAlign=middle;fontFamily=Helvetica;fontSize=12;fontColor=default;fillColor=default;dashed=1;labelPosition=right;verticalLabelPosition=middle;" vertex="1" parent="1">
          <mxGeometry x="448" y="510" width="180" height="60" as="geometry" />
        </mxCell>
        <mxCell id="KczFj5_08jti5lBXCSbE-95" style="edgeStyle=orthogonalEdgeStyle;rounded=0;orthogonalLoop=1;jettySize=auto;html=1;exitX=0.5;exitY=1;exitDx=0;exitDy=0;fontFamily=Helvetica;fontSize=12;fontColor=default;" edge="1" parent="1" source="KczFj5_08jti5lBXCSbE-72" target="KczFj5_08jti5lBXCSbE-90">
          <mxGeometry relative="1" as="geometry" />
        </mxCell>
        <mxCell id="KczFj5_08jti5lBXCSbE-72" value="T61" style="rounded=0;whiteSpace=wrap;html=1;strokeColor=default;align=center;verticalAlign=middle;fontFamily=Helvetica;fontSize=12;fontColor=default;fillColor=default;" vertex="1" parent="1">
          <mxGeometry x="458" y="520" width="40" height="40" as="geometry" />
        </mxCell>
        <mxCell id="KczFj5_08jti5lBXCSbE-96" style="edgeStyle=orthogonalEdgeStyle;rounded=0;orthogonalLoop=1;jettySize=auto;html=1;exitX=0.5;exitY=1;exitDx=0;exitDy=0;fontFamily=Helvetica;fontSize=12;fontColor=default;" edge="1" parent="1" source="KczFj5_08jti5lBXCSbE-73" target="KczFj5_08jti5lBXCSbE-89">
          <mxGeometry relative="1" as="geometry" />
        </mxCell>
        <mxCell id="KczFj5_08jti5lBXCSbE-73" value="T62" style="rounded=0;whiteSpace=wrap;html=1;strokeColor=default;align=center;verticalAlign=middle;fontFamily=Helvetica;fontSize=12;fontColor=default;fillColor=default;" vertex="1" parent="1">
          <mxGeometry x="518" y="520" width="40" height="40" as="geometry" />
        </mxCell>
        <mxCell id="KczFj5_08jti5lBXCSbE-74" value="" style="endArrow=classic;html=1;rounded=0;fontFamily=Helvetica;fontSize=12;fontColor=default;entryX=0.5;entryY=0;entryDx=0;entryDy=0;exitX=0.5;exitY=1;exitDx=0;exitDy=0;" edge="1" parent="1" target="KczFj5_08jti5lBXCSbE-70" source="KczFj5_08jti5lBXCSbE-32">
          <mxGeometry width="50" height="50" relative="1" as="geometry">
            <mxPoint x="350" y="550" as="sourcePoint" />
            <mxPoint x="400" y="500" as="targetPoint" />
          </mxGeometry>
        </mxCell>
        <mxCell id="KczFj5_08jti5lBXCSbE-97" style="edgeStyle=orthogonalEdgeStyle;rounded=0;orthogonalLoop=1;jettySize=auto;html=1;exitX=0.5;exitY=1;exitDx=0;exitDy=0;entryX=0.5;entryY=0;entryDx=0;entryDy=0;fontFamily=Helvetica;fontSize=12;fontColor=default;" edge="1" parent="1" source="KczFj5_08jti5lBXCSbE-75" target="KczFj5_08jti5lBXCSbE-88">
          <mxGeometry relative="1" as="geometry" />
        </mxCell>
        <mxCell id="KczFj5_08jti5lBXCSbE-75" value="T63" style="whiteSpace=wrap;html=1;aspect=fixed;strokeColor=default;align=center;verticalAlign=middle;fontFamily=Helvetica;fontSize=12;fontColor=default;fillColor=default;" vertex="1" parent="1">
          <mxGeometry x="578" y="520" width="40" height="40" as="geometry" />
        </mxCell>
        <mxCell id="KczFj5_08jti5lBXCSbE-76" value="" style="endArrow=classic;html=1;rounded=0;fontFamily=Helvetica;fontSize=12;fontColor=default;entryX=0.5;entryY=0;entryDx=0;entryDy=0;exitX=0.5;exitY=1;exitDx=0;exitDy=0;" edge="1" parent="1" target="KczFj5_08jti5lBXCSbE-75" source="KczFj5_08jti5lBXCSbE-33">
          <mxGeometry width="50" height="50" relative="1" as="geometry">
            <mxPoint x="555" y="550" as="sourcePoint" />
            <mxPoint x="605" y="500" as="targetPoint" />
          </mxGeometry>
        </mxCell>
        <mxCell id="KczFj5_08jti5lBXCSbE-77" value="" style="endArrow=classic;html=1;rounded=0;fontFamily=Helvetica;fontSize=12;fontColor=default;exitX=0.5;exitY=1;exitDx=0;exitDy=0;" edge="1" parent="1" source="KczFj5_08jti5lBXCSbE-33" target="KczFj5_08jti5lBXCSbE-73">
          <mxGeometry width="50" height="50" relative="1" as="geometry">
            <mxPoint x="540" y="530" as="sourcePoint" />
            <mxPoint x="610" y="500" as="targetPoint" />
          </mxGeometry>
        </mxCell>
        <mxCell id="KczFj5_08jti5lBXCSbE-78" value="" style="endArrow=classic;html=1;rounded=0;fontFamily=Helvetica;fontSize=12;fontColor=default;exitX=0.5;exitY=1;exitDx=0;exitDy=0;" edge="1" parent="1" target="KczFj5_08jti5lBXCSbE-72" source="KczFj5_08jti5lBXCSbE-33">
          <mxGeometry width="50" height="50" relative="1" as="geometry">
            <mxPoint x="550" y="550" as="sourcePoint" />
            <mxPoint x="600" y="500" as="targetPoint" />
          </mxGeometry>
        </mxCell>
        <mxCell id="KczFj5_08jti5lBXCSbE-79" value="&lt;b&gt;U35&lt;/b&gt;" style="text;html=1;align=center;verticalAlign=middle;resizable=0;points=[];autosize=1;strokeColor=none;fillColor=none;fontSize=12;fontFamily=Helvetica;fontColor=default;" vertex="1" parent="1">
          <mxGeometry x="358" y="520" width="50" height="30" as="geometry" />
        </mxCell>
        <mxCell id="KczFj5_08jti5lBXCSbE-80" value="" style="endArrow=classic;html=1;rounded=0;fontFamily=Helvetica;fontSize=12;fontColor=default;entryX=0;entryY=0.5;entryDx=0;entryDy=0;exitX=0.5;exitY=1;exitDx=0;exitDy=0;" edge="1" parent="1" target="KczFj5_08jti5lBXCSbE-69" source="KczFj5_08jti5lBXCSbE-32">
          <mxGeometry width="50" height="50" relative="1" as="geometry">
            <mxPoint x="350" y="550" as="sourcePoint" />
            <mxPoint x="400" y="500" as="targetPoint" />
          </mxGeometry>
        </mxCell>
        <mxCell id="KczFj5_08jti5lBXCSbE-85" value="" style="endArrow=classic;html=1;rounded=0;fontFamily=Helvetica;fontSize=12;fontColor=default;entryX=0.5;entryY=0;entryDx=0;entryDy=0;" edge="1" parent="1" target="KczFj5_08jti5lBXCSbE-5">
          <mxGeometry width="50" height="50" relative="1" as="geometry">
            <mxPoint x="500" y="110" as="sourcePoint" />
            <mxPoint x="470" y="180" as="targetPoint" />
          </mxGeometry>
        </mxCell>
        <mxCell id="KczFj5_08jti5lBXCSbE-5" value="RM2" style="ellipse;whiteSpace=wrap;html=1;aspect=fixed;" vertex="1" parent="1">
          <mxGeometry x="480" y="90" width="40" height="40" as="geometry" />
        </mxCell>
        <mxCell id="KczFj5_08jti5lBXCSbE-86" value="FP1" style="ellipse;whiteSpace=wrap;html=1;aspect=fixed;" vertex="1" parent="1">
          <mxGeometry x="258" y="590" width="40" height="40" as="geometry" />
        </mxCell>
        <mxCell id="KczFj5_08jti5lBXCSbE-87" value="FP2" style="ellipse;whiteSpace=wrap;html=1;aspect=fixed;" vertex="1" parent="1">
          <mxGeometry x="320" y="590" width="40" height="40" as="geometry" />
        </mxCell>
        <mxCell id="KczFj5_08jti5lBXCSbE-88" value="FP5" style="ellipse;whiteSpace=wrap;html=1;aspect=fixed;" vertex="1" parent="1">
          <mxGeometry x="578" y="590" width="40" height="40" as="geometry" />
        </mxCell>
        <mxCell id="KczFj5_08jti5lBXCSbE-89" value="FP4" style="ellipse;whiteSpace=wrap;html=1;aspect=fixed;" vertex="1" parent="1">
          <mxGeometry x="518" y="590" width="40" height="40" as="geometry" />
        </mxCell>
        <mxCell id="KczFj5_08jti5lBXCSbE-90" value="FP3" style="ellipse;whiteSpace=wrap;html=1;aspect=fixed;" vertex="1" parent="1">
          <mxGeometry x="458" y="590" width="40" height="40" as="geometry" />
        </mxCell>
      </root>
    </mxGraphModel>
  </diagram>
</mxfile>
